<?xml version="1.0" encoding="UTF-8"?>
<svg id="Layer_1" xmlns="http://www.w3.org/2000/svg" xmlns:xlink="http://www.w3.org/1999/xlink" version="1.1" viewBox="0 0 1456.8 522.4">
  <!-- Generator: Adobe Illustrator 29.2.1, SVG Export Plug-In . SVG Version: 2.1.0 Build 116)  -->
  <defs>
    <style>
      .st0 {
        fill: url(#linear-gradient);
      }

      .st1, .st2, .st3 {
        isolation: isolate;
      }

      .st1, .st3 {
        font-family: MavenPro-Bold, 'Maven Pro';
        font-size: 209.9px;
        font-weight: 700;
      }

      .st1, .st4 {
        fill: #fafafa;
      }

      .st5, .st3 {
        fill: #24af63;
      }

      .st6 {
        fill: #ecdc86;
      }

      .st7 {
        fill: #396e35;
      }

      .st8 {
        fill: #a0918f;
      }
    </style>
    <linearGradient id="linear-gradient" x1="180.79" y1="99.69" x2="181.89" y2="99.69" gradientTransform="translate(-3220.6 -8888.21) rotate(38) scale(48.1)" gradientUnits="userSpaceOnUse">
      <stop offset="0" stop-color="#0c542a"/>
      <stop offset=".2" stop-color="#0c542a"/>
      <stop offset=".6" stop-color="#25af64"/>
      <stop offset=".8" stop-color="#25af64"/>
      <stop offset="1" stop-color="#25af64"/>
    </linearGradient>
  </defs>
  <path id="path24" class="st5" d="M1245.9,248.4v3.6s-.07.03-.2.1l-1.8-1.5c-4-3.4-8.3-6.4-13.1-8.8-.8-.4-1.6-.9-2.5-1.1,0-.1-.2-.2-.3-.2-1.8-.7-3.6-1.3-5.5-1.8-4.1-.9-8.2-1-12.3-.2-5.3,1.1-10,3.4-14.5,6.4-4.4,3-8.4,6.5-12.1,10.2-.47.47-.83.4-1.1-.2-2-4.1-4.2-8.1-6.9-11.8-2.1-2.8-4.4-5.4-7.4-7.2-3-1.9-6.3-2.6-9.8-1.7-4.3,1-7.8,3.6-11.1,6.4-2,1.5-3.8,3.3-5.6,5-1.7,1.5-3.3,3-5,4.5-.3.3-.5.3-.8,0-1.7-1.8-3.5-3.4-5.6-4.5-3.1-1.7-6.3-1.9-9.6-.8-2.8.9-5.2,2.4-7.7,4-1,.6-1.9,1.3-2.9,1.8v-.8c.2-4.4.5-8.9,1.2-13.3,1-6.1,2.5-12,5.2-17.5,2-4.1,4.7-7.9,8.1-11,4.5-4.1,9.8-6.7,15.6-8.3,6.3-1.8,12.7-2.6,19.2-2.9,2.6,0,5.1-.2,7.7-.3,1.3.5,2.6.8,3.9,1.2,1.9.6,3.8,1.2,5.7,1.7,1,.4,1.9.7,2.9,1.1,3.7,1.3,7.3,3,10.4,5.5.8.6,1.6,1.3,2.4,2-.2-.6-.4-1.1-.6-1.7-1.4-3.7-3.5-6.7-6.9-8.8-1.4-.9-2.9-1.5-4.4-2.3h.4c4.5-.8,9.1-1.2,13.7-1.4,3.9-.2,7.9,0,11.8.3,4.6.5,9.1,1.4,13.4,3,6.4,2.4,11.9,6.1,16.2,11.5,3.7,4.7,6.1,10.1,7.6,15.9,1.5,5.7,2.1,11.6,2.3,17.5v6.5"/>
  <path id="path26" class="st6" d="M1245.9,241.8h0v6.6h0v-6.6Z"/>
  <path id="path28" class="st8" d="M1209.4,146.9h-4.5,4.5Z"/>
  <path id="path30" class="st5" d="M1212.3,335.3c2.5-1,4.9-2.3,7.3-3.6,2.8-1.7,5.4-3.5,8-5.4,2.2-1.6,4.3-3.3,6.4-5.1l3.6-3c.2-.2.2-.1.3.1.4,1.6.7,3.3,1.1,5,.5,2.3.8,4.6,1.1,6.9.3,2.7.4,5.3.2,8-.2,3.3-.8,6.6-2,9.7-.7,1.9-1.6,3.7-2.7,5.4-1.4,2.2-3,4.2-5,5.9-2.3,2.1-4.9,3.9-7.7,5.4-3.7,2.1-7.7,3.6-11.8,4.8-3.9,1.2-7.9,2-11.9,2.7-1.1.2-2.2.4-3.3.4-2.3-.1-4.6-.6-6.8-1.4-3.3-1.3-6.2-3.3-9.5-4.8-1.8-.8-3.6-1.4-5.5-1.5-2.5-.2-4.6.7-6.4,2.4l-3.9,3.9c-2.2,2.2-4.8,3.7-7.9,4.2-2.1.3-4.1.2-6.2-.1-2.9-.4-5.7-1.1-8.4-1.9-4-1.3-7.7-3.1-11.1-5.7-3.2-2.4-5.7-5.4-7.8-8.8-2.1-3.5-3.3-7.2-4.2-11.1-.4-1.7-.6-3.5-.8-5.2-.3-2.5-.4-4.9-.3-7.4,0-3.5.4-6.9.9-10.4.4.4.8.7,1.1,1,2.2,2,4.7,3.8,7.3,5.4,2.9,1.7,6.1,3.1,9.4,4,2.2.6,4.5,1,6.8,1.1,1.9.2,3.8.2,5.7.1,2.2-.1,4.5-.3,6.7-.9.3,0,.6,0,.8-.1,2-.4,4-.9,6-1.5,2.3-.7,4.5-1.4,6.7-2.2,2.1-.8,4.3-1.7,6.4-2.6.6-.3,1-.2,1.5.2,3.5,2.7,7.3,5,11.4,6.7,4.6,1.8,9.3,2.7,14.2,2.3,3.6-.7,7-1.6,10.3-2.9"/>
  <path id="path32" class="st6" d="M1212.3,335.3c-3.3,1.3-6.7,2.2-10.2,2.5-4.9.4-9.6-.5-14.2-2.3-4.1-1.6-7.9-3.9-11.4-6.7-.5-.4-.9-.5-1.5-.2-2.1.9-4.2,1.8-6.4,2.6s-4.4,1.6-6.7,2.2c-2,.6-4,1-6,1.5-.3.1-.6.1-.8.1l2.1-2.4c2.8-3.2,4.8-6.9,5.9-11.1,1.6-5.6,3.2-11.3,4.6-17,1-4.2,1.8-8.4,2.4-12.7.4-3.1,1-14.9.8-17.7-.5-8.6-2.4-16.8-5.9-24.7-2.1-4.7-5.7-7.9-10.7-9.2-2.2-.6-4.4-.4-6.5.3-.2.1-.3.2-.5.1,3.3-2.8,6.7-5.4,11.1-6.4,3.5-.8,6.8-.2,9.8,1.7s5.3,4.4,7.4,7.2c2.7,3.7,4.9,7.7,6.9,11.8.27.6.63.67,1.1.2,3.7-3.8,7.7-7.3,12.1-10.2,4.4-3,9.2-5.3,14.5-6.4,4.1-.8,8.2-.7,12.3.2,1.9.4,3.7,1,5.5,1.8,0,.1.3.1.3.2-5.3.1-9.8,2.1-13.9,5.2-2,1.5-3.8,3.2-5.2,5.3-1.1,1.7-2.1,3.6-2.9,5.5-1.8,3.8-3.3,7.8-4.4,11.9-.9,3.5-1.5,7.1-1.8,10.7-.2,2.8-.3,5.6-.2,8.4,0,3.4.5,6.8.9,10.3.7,5.7,1.7,11.4,2.7,17.1.5,3.1.9,6.3,1.5,9.5.7,4.6,3.3,8,7,10.6,0-.1.2,0,.3.1"/>
  <path id="path34" class="st4" d="M1204.9,147h4.5c3.6.2,7.2.8,10.6,2,2.7.9,3.3,2.7,1.7,5-1.1,1.6-2.7,2.8-4.4,3.9-2.1,1.4-4.4,2.6-6.9,3.5-2.5,1-4.9,0-6.5-2.5-.5-.8-.9-1.6-1.1-2.5,0-.3-.2-.4-.5-.4-5.6-1-10.6.3-14.7,4.3-3.4,3.2-5.4,7.3-6.8,11.7-1.3,4-1.9,8-2.1,12.2-.2,3.7,0,7.4.6,11,0,.6.3,1.2.3,1.9,0,.8-.2,1.5-.8,1.9-.7.5-1.5.4-2.3.4-1.9-.6-3.8-1.2-5.7-1.7v-7.2c.4-7.7,1.6-15.3,4.6-22.5,2.2-5.4,5.4-10.1,9.9-13.8,3.7-3.1,7.9-5.1,12.6-6.2,2.4-.6,4.6-.9,6.9-1"/>
  <path id="path36" class="st7" d="M1176.6,199.3c.8,0,1.6,0,2.3-.4s.9-1.2.8-1.9c0-.6-.2-1.3-.3-1.9h1.1c1.4.8,2.9,1.5,4.4,2.3,3.4,2.1,5.5,5.1,6.9,8.8.2.6.4,1.1.6,1.7-.8-.7-1.6-1.4-2.4-2-3.2-2.4-6.7-4.1-10.4-5.5-1.1-.3-2-.6-3-1"/>
  <path id="path38" class="st7" d="M1170.9,196.3v1.3c-1.3-.4-2.6-.7-3.9-1.2h3.9"/>
  <g class="st2">
    <text class="st3" transform="translate(210.7 328.7)"><tspan x="0" y="0">DNA-</tspan></text>
    <text class="st1" transform="translate(754.3 328.7)"><tspan x="0" y="0">inn</tspan></text>
  </g>
  <path id="path67" class="st0" d="M696.1,253.6l-22.6,21.5h64v-21.5h-41.4Z"/>
</svg>